# Blender v3.0.0 OBJ File: 'satis.blend'
# www.blender.org
o electric_engine
v -0.140000 0.000000 0.080000
v 0.100000 0.000000 0.080000
v -0.140000 0.000000 -0.080000
v 0.100000 0.000000 -0.080000
v 0.080000 0.100000 -0.060000
v 0.080000 0.142426 -0.042426
v 0.080000 0.160000 0.000000
v 0.080000 0.142426 0.042426
v 0.080000 0.100000 0.060000
v 0.080000 0.057574 0.042426
v 0.080000 0.040000 -0.000000
v 0.080000 0.057574 -0.042426
v 0.100000 0.100000 -0.038352
v 0.100000 0.127119 -0.027119
v 0.100000 0.138352 0.000000
v 0.100000 0.127119 0.027119
v 0.100000 0.100000 0.038352
v 0.100000 0.072881 0.027119
v 0.100000 0.061648 0.000000
v 0.100000 0.072881 -0.027119
v 0.100000 0.142426 -0.042426
v 0.100000 0.100000 -0.060000
v 0.100000 0.160000 0.000000
v 0.100000 0.142426 0.042426
v 0.100000 0.100000 0.060000
v 0.100000 0.057574 0.042426
v 0.100000 0.040000 -0.000000
v 0.100000 0.057574 -0.042426
v 0.100000 0.087272 -0.012728
v 0.100000 0.082000 0.000000
v 0.100000 0.087272 0.012728
v 0.100000 0.100000 0.018000
v 0.100000 0.112728 0.012728
v 0.100000 0.118000 0.000000
v 0.100000 0.112728 -0.012728
v 0.100000 0.100000 -0.018000
v 0.150000 0.087272 -0.012728
v 0.150000 0.082000 0.000000
v 0.150000 0.087272 0.012728
v 0.150000 0.100000 0.018000
v 0.150000 0.112728 0.012728
v 0.150000 0.118000 0.000000
v 0.150000 0.112728 -0.012728
v 0.150000 0.100000 -0.018000
v 0.160000 0.091000 0.000000
v 0.160000 0.100000 0.009000
v 0.160000 0.109000 0.000000
v 0.160000 0.100000 -0.009000
v 0.080000 0.100000 -0.080000
v 0.080000 0.140000 -0.069282
v 0.080000 0.169282 -0.040000
v 0.080000 0.180000 0.000000
v 0.080000 0.169282 0.040000
v 0.080000 0.140000 0.069282
v 0.080000 0.100000 0.080000
v 0.080000 0.060000 0.069282
v 0.080000 0.030718 0.040000
v 0.080000 0.020000 -0.000000
v 0.080000 0.030718 -0.040000
v 0.080000 0.060000 -0.069282
v -0.120000 0.100000 -0.080000
v -0.120000 0.140000 -0.069282
v -0.120000 0.169282 -0.040000
v -0.120000 0.180000 0.000000
v -0.120000 0.169282 0.040000
v -0.120000 0.140000 0.069282
v -0.120000 0.100000 0.080000
v -0.120000 0.060000 0.069282
v -0.120000 0.030718 0.040000
v -0.120000 0.020000 -0.000000
v -0.120000 0.030718 -0.040000
v -0.120000 0.060000 -0.069282
v -0.160000 0.100000 -0.030000
v -0.160000 0.115000 -0.025981
v -0.160000 0.125981 -0.015000
v -0.160000 0.130000 0.000000
v -0.160000 0.125981 0.015000
v -0.160000 0.115000 0.025981
v -0.160000 0.100000 0.030000
v -0.160000 0.085000 0.025981
v -0.160000 0.074019 0.015000
v -0.160000 0.070000 0.000000
v -0.160000 0.074019 -0.015000
v -0.160000 0.085000 -0.025981
v -0.140000 0.100000 -0.070000
v -0.140000 0.135000 -0.060622
v -0.140000 0.160622 -0.035000
v -0.140000 0.170000 0.000000
v -0.140000 0.160622 0.035000
v -0.140000 0.135000 0.060622
v -0.140000 0.100000 0.070000
v -0.140000 0.065000 0.060622
v -0.140000 0.039378 0.035000
v -0.140000 0.030000 0.000000
v -0.140000 0.039378 -0.035000
v -0.140000 0.065000 -0.060622
v -0.030000 0.160000 0.040000
v 0.040000 0.160000 0.040000
v -0.030000 0.160000 -0.040000
v 0.040000 0.160000 -0.040000
v -0.030000 0.210000 0.040000
v 0.040000 0.210000 0.040000
v -0.030000 0.210000 -0.040000
v 0.040000 0.210000 -0.040000
v -0.030000 0.200000 0.050000
v -0.040000 0.200000 0.040000
v 0.040000 0.200000 0.050000
v 0.050000 0.200000 0.040000
v 0.050000 0.200000 -0.040000
v 0.040000 0.200000 -0.050000
v -0.030000 0.200000 -0.050000
v -0.040000 0.200000 -0.040000
v -0.030000 0.190000 0.050000
v -0.040000 0.190000 0.040000
v 0.040000 0.190000 0.050000
v 0.050000 0.190000 0.040000
v 0.050000 0.190000 -0.040000
v 0.040000 0.190000 -0.050000
v -0.030000 0.190000 -0.050000
v -0.040000 0.190000 -0.040000
v -0.140000 0.020000 0.080000
v 0.100000 0.020000 0.080000
v -0.140000 0.020000 -0.080000
v 0.100000 0.020000 -0.080000
v 0.030000 0.020000 0.080000
v -0.070000 0.020000 0.080000
v 0.030000 0.050000 0.050000
v -0.070000 0.050000 0.050000
v 0.030000 0.050000 -0.050000
v -0.070000 0.050000 -0.050000
v 0.030000 0.020000 -0.080000
v -0.070000 0.020000 -0.080000
v -0.145000 0.151962 0.030000
v -0.145000 0.160000 0.000000
v -0.145000 0.130000 0.051962
v -0.145000 0.100000 0.060000
v -0.145000 0.070000 0.051962
v -0.145000 0.048038 0.030000
v -0.145000 0.040000 0.000000
v -0.145000 0.048038 -0.030000
v -0.145000 0.070000 -0.051961
v -0.145000 0.100000 -0.060000
v -0.145000 0.130000 -0.051961
v -0.145000 0.151962 -0.030000
vt 0.125000 0.125000
vt 0.125000 0.125000
vt 0.125000 0.125000
vt 0.125000 0.125000
vt 0.375000 0.125000
vt 0.375000 0.125000
vt 0.375000 0.125000
vt 0.375000 0.125000
vt 0.375000 0.125000
vt 0.375000 0.125000
vt 0.375000 0.125000
vt 0.375000 0.125000
vt 0.375000 0.125000
vt 0.375000 0.125000
vt 0.375000 0.125000
vt 0.375000 0.125000
vt 0.375000 0.125000
vt 0.375000 0.125000
vt 0.375000 0.125000
vt 0.375000 0.125000
vt 0.125000 0.125000
vt 0.125000 0.125000
vt 0.125000 0.125000
vt 0.375000 0.125000
vt 0.375000 0.125000
vt 0.375000 0.125000
vt 0.375000 0.125000
vt 0.375000 0.125000
vt 0.375000 0.125000
vt 0.375000 0.125000
vt 0.375000 0.125000
vt 0.125000 0.125000
vt 0.125000 0.125000
vt 0.125000 0.125000
vt 0.125000 0.125000
vt 0.125000 0.125000
vt 0.625000 0.125000
vt 0.625000 0.125000
vt 0.625000 0.125000
vt 0.625000 0.125000
vt 0.625000 0.125000
vt 0.625000 0.125000
vt 0.625000 0.125000
vt 0.625000 0.125000
vt 0.625000 0.125000
vt 0.625000 0.125000
vt 0.625000 0.125000
vt 0.625000 0.125000
vt 0.625000 0.125000
vt 0.625000 0.125000
vt 0.625000 0.125000
vt 0.625000 0.125000
vt 0.625000 0.125000
vt 0.625000 0.125000
vt 0.625000 0.125000
vt 0.625000 0.125000
vt 0.375000 0.125000
vt 0.375000 0.125000
vt 0.375000 0.125000
vt 0.375000 0.125000
vt 0.375000 0.125000
vt 0.375000 0.125000
vt 0.375000 0.125000
vt 0.375000 0.125000
vt 0.375000 0.125000
vt 0.375000 0.125000
vt 0.375000 0.125000
vt 0.375000 0.125000
vt 0.375000 0.125000
vt 0.375000 0.125000
vt 0.375000 0.125000
vt 0.375000 0.125000
vt 0.375000 0.125000
vt 0.375000 0.125000
vt 0.375000 0.125000
vt 0.375000 0.125000
vt 0.375000 0.125000
vt 0.375000 0.125000
vt 0.375000 0.125000
vt 0.375000 0.125000
vt 0.375000 0.125000
vt 0.375000 0.125000
vt 0.375000 0.125000
vt 0.375000 0.125000
vt 0.375000 0.125000
vt 0.375000 0.125000
vt 0.375000 0.125000
vt 0.375000 0.125000
vt 0.375000 0.125000
vt 0.375000 0.125000
vt 0.375000 0.125000
vt 0.375000 0.125000
vt 0.375000 0.125000
vt 0.375000 0.125000
vt 0.375000 0.125000
vt 0.375000 0.125000
vt 0.375000 0.125000
vt 0.375000 0.125000
vt 0.375000 0.125000
vt 0.375000 0.125000
vt 0.375000 0.125000
vt 0.375000 0.125000
vt 0.375000 0.125000
vt 0.375000 0.125000
vt 0.375000 0.125000
vt 0.375000 0.125000
vt 0.375000 0.125000
vt 0.375000 0.125000
vt 0.375000 0.125000
vt 0.375000 0.125000
vt 0.375000 0.125000
vt 0.375000 0.125000
vt 0.375000 0.125000
vt 0.375000 0.125000
vt 0.375000 0.125000
vt 0.375000 0.125000
vt 0.375000 0.125000
vt 0.375000 0.125000
vt 0.375000 0.125000
vt 0.375000 0.125000
vt 0.375000 0.125000
vt 0.375000 0.125000
vt 0.375000 0.125000
vt 0.375000 0.125000
vt 0.125000 0.125000
vt 0.125000 0.125000
vt 0.125000 0.125000
vt 0.125000 0.125000
vt 0.125000 0.125000
vt 0.125000 0.125000
vt 0.125000 0.125000
vt 0.125000 0.125000
vt 0.125000 0.125000
vt 0.125000 0.125000
vt 0.125000 0.125000
vt 0.125000 0.125000
vt 0.125000 0.125000
vt 0.125000 0.125000
vt 0.125000 0.125000
vt 0.125000 0.125000
vt 0.125000 0.125000
vt 0.125000 0.125000
vt 0.125000 0.125000
vt 0.125000 0.125000
vt 0.125000 0.125000
vt 0.125000 0.125000
vt 0.125000 0.125000
vt 0.125000 0.125000
vt 0.125000 0.125000
vt 0.125000 0.125000
vt 0.125000 0.125000
vt 0.125000 0.125000
vt 0.875000 0.125000
vt 0.875000 0.125000
vt 0.875000 0.125000
vt 0.875000 0.125000
vt 0.875000 0.125000
vt 0.875000 0.125000
vt 0.875000 0.125000
vt 0.875000 0.125000
vt 0.875000 0.125000
vt 0.875000 0.125000
vt 0.875000 0.125000
vt 0.875000 0.125000
vt 0.875000 0.125000
vt 0.875000 0.125000
vt 0.875000 0.125000
vt 0.875000 0.125000
vt 0.875000 0.125000
vt 0.875000 0.125000
vt 0.875000 0.125000
vt 0.875000 0.125000
vt 0.875000 0.125000
vt 0.875000 0.125000
vt 0.875000 0.125000
vt 0.875000 0.125000
vn 0.0000 -1.0000 0.0000
vn 0.0000 -0.7071 0.7071
vn 0.0000 -0.0000 1.0000
vn 0.0000 0.7071 0.7071
vn 0.0000 1.0000 0.0000
vn 0.0000 0.7071 -0.7071
vn 0.0000 0.0000 -1.0000
vn 0.0000 -0.7071 -0.7071
vn 1.0000 -0.0000 0.0000
vn 0.6983 0.5062 0.5062
vn 0.8838 0.4679 0.0000
vn 0.6690 0.7433 0.0000
vn 0.8838 -0.4679 -0.0000
vn 0.6983 -0.5062 0.5062
vn 0.6690 -0.7433 0.0000
vn 0.6983 -0.5062 -0.5062
vn 0.6983 0.5062 -0.5062
vn 0.8838 -0.0000 0.4679
vn 0.6690 0.0000 0.7433
vn 0.8838 0.0000 -0.4679
vn 0.6690 0.0000 -0.7433
vn 0.0000 0.8660 0.5000
vn 0.0000 -0.5000 -0.8660
vn 0.0000 -0.8660 -0.5000
vn 0.0000 0.5000 -0.8660
vn 0.0000 -0.8660 0.5000
vn 0.0000 -0.5000 0.8660
vn 0.0000 0.5000 0.8660
vn 0.0000 0.8660 -0.5000
vn -0.4472 0.8944 0.0000
vn -0.6819 0.7315 0.0000
vn -0.6819 0.6335 0.3657
vn -0.4472 0.7746 0.4472
vn -0.6819 0.3657 0.6335
vn -0.4472 0.4472 0.7746
vn -0.6819 -0.0000 0.7315
vn -0.4472 -0.0000 0.8944
vn -0.6819 -0.3657 0.6335
vn -0.4472 -0.4472 0.7746
vn -0.6819 -0.6335 0.3657
vn -0.4472 -0.7746 0.4472
vn -0.6819 -0.7315 -0.0000
vn -0.4472 -0.8944 -0.0000
vn -0.6819 -0.6335 -0.3657
vn -0.4472 -0.7746 -0.4472
vn -0.6819 -0.3657 -0.6335
vn -0.4472 -0.4472 -0.7746
vn -0.6819 0.0000 -0.7315
vn -0.4472 -0.0000 -0.8944
vn -0.6819 0.3657 -0.6335
vn -0.4472 0.4472 -0.7746
vn -0.6819 0.6335 -0.3657
vn -0.4472 0.7746 -0.4472
vn -0.8944 0.4472 0.0000
vn -0.8944 0.3873 0.2236
vn -0.8944 0.2236 0.3873
vn -0.8944 -0.0000 0.4472
vn -0.8944 -0.2236 0.3873
vn -0.8944 -0.3873 0.2236
vn -0.8944 -0.4472 0.0000
vn -0.8944 -0.3873 -0.2236
vn -0.8944 -0.2236 -0.3873
vn -0.8944 -0.0000 -0.4472
vn -0.8944 0.2236 -0.3873
vn -0.8944 0.3873 -0.2236
vn -1.0000 -0.0000 0.0000
vn 0.9239 0.0000 0.3827
vn 0.3827 0.0000 0.9239
vn -0.3827 0.0000 0.9239
vn -0.9239 0.0000 0.3827
vn -0.9239 0.0000 -0.3827
vn -0.3827 0.0000 -0.9239
vn 0.3827 0.0000 -0.9239
vn 0.9239 0.0000 -0.3827
s 1
f 1/1/1 3/2/1 4/3/1 2/4/1
f 10/5/2 26/6/2 25/7/3 9/8/3
f 8/9/4 24/10/4 23/11/5 7/12/5
f 6/13/6 21/14/6 22/15/7 5/16/7
f 5/16/7 22/15/7 28/17/8 12/18/8
f 11/19/1 27/20/1 26/6/2 10/5/2
f 9/8/3 25/7/3 24/10/4 8/9/4
f 7/12/5 23/11/5 21/14/6 6/13/6
f 12/18/8 28/17/8 27/20/1 11/19/1
f 19/21/9 20/22/9 18/23/9
f 14/24/9 13/25/9 22/15/9 21/14/9
f 15/26/9 14/24/9 21/14/9 23/11/9
f 16/27/9 15/26/9 23/11/9 24/10/9
f 17/28/9 16/27/9 24/10/9 25/7/9
f 18/29/9 17/28/9 25/7/9 26/6/9
f 19/30/9 18/29/9 26/6/9 27/20/9
f 20/31/9 19/30/9 27/20/9 28/17/9
f 13/25/9 20/31/9 28/17/9 22/15/9
f 18/23/9 20/22/9 13/32/9 17/33/9
f 14/34/9 16/35/9 17/33/9 13/32/9
f 15/36/9 16/35/9 14/34/9
f 36/37/7 44/38/7 37/39/8 29/40/8
f 31/41/2 39/42/2 40/43/3 32/44/3
f 35/45/6 43/46/6 44/38/7 36/37/7
f 33/47/4 41/48/4 42/49/5 34/50/5
f 30/51/1 38/52/1 39/42/2 31/41/2
f 29/40/8 37/39/8 38/52/1 30/51/1
f 34/50/5 42/49/5 43/46/6 35/45/6
f 32/44/3 40/43/3 41/48/4 33/47/4
f 41/48/10 47/53/11 42/49/12
f 45/54/13 39/42/14 38/52/15
f 37/39/16 45/54/13 38/52/15
f 47/53/11 43/46/17 42/49/12
f 46/55/18 41/48/10 40/43/19
f 48/56/20 37/39/16 44/38/21
f 39/42/14 46/55/18 40/43/19
f 43/46/17 48/56/20 44/38/21
f 48/56/20 47/53/11 46/55/18 45/54/13
f 46/55/18 47/53/11 41/48/10
f 47/53/11 48/56/20 43/46/17
f 48/56/20 45/54/13 37/39/16
f 45/54/13 46/55/18 39/42/14
f 53/57/22 52/58/5 64/59/5 65/60/22
f 60/61/23 59/62/24 71/63/24 72/64/23
f 50/65/25 49/66/7 61/67/7 62/68/25
f 57/69/26 56/70/27 68/71/27 69/72/26
f 54/73/28 53/57/22 65/60/22 66/74/28
f 49/66/7 60/61/23 72/64/23 61/67/7
f 51/75/29 50/65/25 62/68/25 63/76/29
f 58/77/1 57/69/26 69/72/26 70/78/1
f 55/79/3 54/73/28 66/74/28 67/80/3
f 52/58/5 51/75/29 63/76/29 64/59/5
f 59/62/24 58/77/1 70/78/1 71/63/24
f 56/70/27 55/79/3 67/80/3 68/71/27
f 52/58/9 53/57/9 54/73/9 51/75/9
f 51/75/9 54/73/9 55/79/9 50/65/9
f 50/65/9 55/79/9 56/70/9 49/66/9
f 57/69/9 60/61/9 49/66/9 56/70/9
f 58/77/9 59/62/9 60/61/9 57/69/9
f 64/59/30 88/81/31 89/82/32 65/60/33
f 65/60/33 89/82/32 90/83/34 66/74/35
f 66/74/35 90/83/34 91/84/36 67/80/37
f 67/80/37 91/84/36 92/85/38 68/71/39
f 68/71/39 92/85/38 93/86/40 69/72/41
f 69/72/41 93/86/40 94/87/42 70/78/43
f 70/78/43 94/87/42 95/88/44 71/63/45
f 71/63/45 95/88/44 96/89/46 72/64/47
f 72/64/47 96/89/46 85/90/48 61/67/49
f 61/67/49 85/90/48 86/91/50 62/68/51
f 62/68/51 86/91/50 87/92/52 63/76/53
f 63/76/53 87/92/52 88/81/31 64/59/30
f 134/93/54 133/94/55 89/82/32 88/81/31
f 133/94/55 135/95/56 90/83/34 89/82/32
f 135/95/56 136/96/57 91/84/36 90/83/34
f 136/96/57 137/97/58 92/85/38 91/84/36
f 137/97/58 138/98/59 93/86/40 92/85/38
f 138/98/59 139/99/60 94/87/42 93/86/40
f 139/99/60 140/100/61 95/88/44 94/87/42
f 140/100/61 141/101/62 96/89/46 95/88/44
f 141/101/62 142/102/63 85/90/48 96/89/46
f 142/102/63 143/103/64 86/91/50 85/90/48
f 143/103/64 144/104/65 87/92/52 86/91/50
f 144/104/65 134/93/54 88/81/31 87/92/52
f 76/105/66 75/106/66 77/107/66
f 75/106/66 74/108/66 78/109/66 77/107/66
f 74/108/66 73/110/66 79/111/66 78/109/66
f 80/112/66 79/111/66 73/110/66 84/113/66
f 81/114/66 80/112/66 84/113/66 83/115/66
f 82/116/66 81/114/66 83/115/66
f 103/117/5 101/118/5 102/119/5 104/120/5
f 100/121/9 104/120/9 102/119/9 98/122/9
f 97/123/66 101/118/66 103/117/66 99/124/66
f 99/124/7 103/117/7 104/120/7 100/121/7
f 98/122/3 102/119/3 101/118/3 97/123/3
f 108/125/67 107/126/68 115/127/68 116/128/67
f 105/129/69 106/130/70 114/131/70 113/132/69
f 106/130/70 112/133/71 120/134/71 114/131/70
f 111/135/72 110/136/73 118/137/73 119/138/72
f 109/139/74 108/125/67 116/128/67 117/140/74
f 107/126/68 105/129/69 113/132/69 115/127/68
f 112/133/71 111/135/72 119/138/72 120/134/71
f 110/136/73 109/139/74 117/140/74 118/137/73
f 105/129/5 111/135/5 112/133/5 106/130/5
f 107/126/5 110/136/5 111/135/5 105/129/5
f 108/125/5 109/139/5 110/136/5 107/126/5
f 113/132/1 114/131/1 120/134/1 119/138/1
f 115/127/1 113/132/1 119/138/1 118/137/1
f 116/128/1 115/127/1 118/137/1 117/140/1
f 126/141/66 128/142/66 130/143/66 132/144/66
f 4/3/9 124/145/9 122/146/9 2/4/9
f 1/1/66 121/147/66 123/148/66 3/2/66
f 131/149/9 129/150/9 127/151/9 125/152/9
f 125/152/4 127/151/4 128/142/4 126/141/4
f 129/150/6 131/149/6 132/144/6 130/143/6
f 131/149/5 125/152/5 122/146/5 124/145/5
f 123/148/5 121/147/5 126/141/5 132/144/5
f 123/148/7 132/144/7 3/2/7
f 124/145/7 4/3/7 131/149/7
f 3/2/7 132/144/7 131/149/7 4/3/7
f 122/146/3 125/152/3 2/4/3
f 1/1/3 126/141/3 121/147/3
f 1/1/3 2/4/3 125/152/3 126/141/3
f 75/153/65 76/154/54 134/155/54 144/156/65
f 74/108/64 75/106/65 144/104/65 143/103/64
f 73/157/63 74/158/64 143/159/64 142/160/63
f 84/113/62 73/110/63 142/102/63 141/101/62
f 83/161/61 84/162/62 141/163/62 140/164/61
f 82/116/60 83/115/61 140/100/61 139/99/60
f 81/165/59 82/166/60 139/167/60 138/168/59
f 80/112/58 81/114/59 138/98/59 137/97/58
f 79/169/57 80/170/58 137/171/58 136/172/57
f 78/109/56 79/111/57 136/96/57 135/95/56
f 77/173/55 78/174/56 135/175/56 133/176/55
f 76/105/54 77/107/55 133/94/55 134/93/54
