# Blender v3.0.0 OBJ File: 'satis.blend'
# www.blender.org
o steam_engine
v 0.130000 0.070000 0.060000
v 0.112426 0.112426 0.060000
v 0.070000 0.130000 0.060000
v 0.027574 0.112426 0.060000
v 0.010000 0.070000 0.060000
v 0.027574 0.027574 0.060000
v 0.070000 0.010000 0.060000
v 0.112426 0.027574 0.060000
v 0.108352 0.070000 0.080000
v 0.097119 0.097119 0.080000
v 0.070000 0.108352 0.080000
v 0.042881 0.097119 0.080000
v 0.031648 0.070000 0.080000
v 0.042881 0.042881 0.080000
v 0.070000 0.031648 0.080000
v 0.097119 0.042881 0.080000
v -0.070000 0.112426 0.032426
v -0.070000 0.130000 -0.010000
v -0.070000 0.112426 -0.052426
v -0.070000 0.070000 -0.070000
v 0.070000 0.112426 -0.052426
v 0.070000 0.130000 -0.010000
v 0.070000 0.112426 0.032426
v 0.112426 0.112426 0.080000
v 0.130000 0.070000 0.080000
v 0.070000 0.130000 0.080000
v 0.027574 0.112426 0.080000
v 0.010000 0.070000 0.080000
v 0.027574 0.027574 0.080000
v 0.070000 0.010000 0.080000
v 0.112426 0.027574 0.080000
v -0.070000 0.070000 -0.080000
v -0.070000 0.119497 -0.059497
v -0.070000 0.140000 -0.010000
v -0.070000 0.119497 0.039497
v -0.070000 0.070000 0.060000
v 0.070000 0.020000 0.060000
v 0.070000 0.020000 -0.080000
v -0.130000 0.070000 -0.080000
v -0.130000 0.119497 -0.059497
v -0.130000 0.140000 -0.010000
v -0.130000 0.119497 0.039497
v -0.130000 0.070000 0.060000
v 0.130000 0.000000 0.060000
v 0.130000 0.000000 -0.080000
v 0.130000 0.070000 -0.080000
v 0.130000 0.119497 -0.059497
v 0.130000 0.140000 -0.010000
v 0.130000 0.119497 0.039497
v 0.130000 0.070000 0.060000
v -0.130000 0.000000 0.060000
v -0.130000 0.000000 -0.080000
v 0.070000 0.070000 -0.080000
v 0.070000 0.119497 -0.059497
v 0.070000 0.140000 -0.010000
v 0.070000 0.119497 0.039497
v 0.070000 0.070000 0.060000
v -0.070000 0.020000 0.060000
v -0.070000 0.020000 -0.080000
v -0.070000 0.070000 0.050000
v -0.070000 0.027574 0.032426
v -0.070000 0.010000 -0.010000
v -0.070000 0.027574 -0.052426
v 0.070000 0.070000 -0.070000
v 0.070000 0.027574 -0.052426
v 0.070000 0.010000 -0.010000
v 0.070000 0.027574 0.032426
v 0.070000 0.070000 0.050000
v 0.050000 0.110000 -0.010000
v 0.035000 0.110000 -0.035981
v 0.005000 0.110000 -0.035981
v -0.010000 0.110000 -0.010000
v 0.005000 0.110000 0.015981
v 0.035000 0.110000 0.015981
v 0.050000 0.130000 -0.010000
v 0.035000 0.130000 -0.035981
v 0.005000 0.130000 -0.035981
v -0.010000 0.130000 -0.010000
v 0.005000 0.130000 0.015981
v 0.035000 0.130000 0.015981
v 0.039800 0.140000 -0.010000
v 0.029900 0.140000 -0.027147
v 0.010100 0.140000 -0.027147
v 0.000200 0.140000 -0.010000
v 0.010100 0.140000 0.007147
v 0.029900 0.140000 0.007147
v 0.039800 0.180000 -0.010000
v 0.029900 0.180000 -0.027147
v 0.010100 0.180000 -0.027147
v 0.000200 0.180000 -0.010000
v 0.010100 0.180000 0.007147
v 0.029900 0.180000 0.007147
v 0.029900 0.194850 -0.018574
v 0.010100 0.194850 -0.018574
v 0.029900 0.194850 -0.001426
v 0.010100 0.194850 -0.001426
v -0.080200 0.130000 -0.010000
v -0.090100 0.130000 -0.027147
v -0.109900 0.130000 -0.027147
v -0.119800 0.130000 -0.010000
v -0.109900 0.130000 0.007147
v -0.090100 0.130000 0.007147
v -0.080200 0.150000 -0.010000
v -0.090100 0.150000 -0.027147
v -0.109900 0.150000 -0.027147
v -0.119800 0.150000 -0.010000
v -0.109900 0.150000 0.007147
v -0.090100 0.150000 0.007147
v 0.104950 0.160000 -0.001426
v 0.095050 0.160000 -0.001426
v 0.119800 0.130000 -0.010000
v 0.109900 0.130000 -0.027147
v 0.090100 0.130000 -0.027147
v 0.080200 0.130000 -0.010000
v 0.090100 0.130000 0.007147
v 0.109900 0.130000 0.007147
v 0.119800 0.150000 -0.010000
v 0.109900 0.150000 -0.027147
v 0.090100 0.150000 -0.027147
v 0.080200 0.150000 -0.010000
v 0.090100 0.150000 0.007147
v 0.109900 0.150000 0.007147
v 0.090100 0.160000 -0.010000
v 0.095050 0.160000 -0.018574
v 0.104950 0.160000 -0.018574
v 0.109900 0.160000 -0.010000
v 0.104950 0.240000 -0.001426
v 0.095050 0.240000 -0.001426
v 0.090100 0.240000 -0.010000
v 0.095050 0.240000 -0.018574
v 0.104950 0.240000 -0.018574
v 0.109900 0.240000 -0.010000
v -0.080000 0.050000 0.080000
v -0.100000 0.050000 0.080000
v -0.110000 0.050000 0.070000
v -0.080000 0.090000 0.080000
v -0.100000 0.090000 0.080000
v -0.110000 0.090000 0.070000
v -0.080000 0.090000 0.050000
v -0.110000 0.090000 0.050000
v -0.080000 0.050000 0.070000
v -0.080000 0.060000 0.075000
v -0.080000 0.060000 0.065000
v 0.030000 0.040000 0.075000
v 0.030000 0.040000 0.065000
v 0.030000 0.050000 0.075000
v 0.030000 0.050000 0.065000
v -0.080000 0.070000 0.075000
v -0.080000 0.070000 0.065000
v 0.069800 0.050000 0.040000
v 0.086947 0.059900 0.040000
v 0.086947 0.079700 0.040000
v 0.069800 0.089600 0.040000
v 0.052653 0.079700 0.040000
v 0.052653 0.059900 0.040000
v 0.069800 0.050000 0.060000
v 0.086947 0.059900 0.060000
v 0.086947 0.079700 0.060000
v 0.069800 0.089600 0.060000
v 0.052653 0.079700 0.060000
v 0.052653 0.059900 0.060000
vt 0.625000 0.125000
vt 0.625000 0.125000
vt 0.625000 0.125000
vt 0.625000 0.125000
vt 0.625000 0.125000
vt 0.625000 0.125000
vt 0.625000 0.125000
vt 0.625000 0.125000
vt 0.625000 0.125000
vt 0.625000 0.125000
vt 0.625000 0.125000
vt 0.625000 0.125000
vt 0.625000 0.125000
vt 0.625000 0.125000
vt 0.625000 0.125000
vt 0.625000 0.125000
vt 0.125000 0.125000
vt 0.125000 0.125000
vt 0.125000 0.125000
vt 0.125000 0.125000
vt 0.125000 0.125000
vt 0.125000 0.125000
vt 0.875000 0.125000
vt 0.875000 0.125000
vt 0.875000 0.125000
vt 0.875000 0.125000
vt 0.875000 0.125000
vt 0.875000 0.125000
vt 0.875000 0.125000
vt 0.875000 0.125000
vt 0.875000 0.125000
vt 0.875000 0.125000
vt 0.875000 0.125000
vt 0.875000 0.125000
vt 0.875000 0.125000
vt 0.625000 0.125000
vt 0.625000 0.125000
vt 0.625000 0.125000
vt 0.625000 0.125000
vt 0.625000 0.125000
vt 0.625000 0.125000
vt 0.625000 0.125000
vt 0.625000 0.125000
vt 0.875000 0.125000
vt 0.875000 0.125000
vt 0.875000 0.125000
vt 0.875000 0.125000
vt 0.875000 0.125000
vt 0.125000 0.125000
vt 0.125000 0.125000
vt 0.125000 0.125000
vt 0.125000 0.125000
vt 0.125000 0.125000
vt 0.125000 0.125000
vt 0.125000 0.125000
vt 0.125000 0.125000
vt 0.125000 0.125000
vt 0.125000 0.125000
vt 0.125000 0.125000
vt 0.125000 0.125000
vt 0.125000 0.125000
vt 0.125000 0.125000
vt 0.125000 0.125000
vt 0.125000 0.125000
vt 0.125000 0.125000
vt 0.125000 0.125000
vt 0.125000 0.125000
vt 0.125000 0.125000
vt 0.125000 0.125000
vt 0.125000 0.125000
vt 0.875000 0.125000
vt 0.875000 0.125000
vt 0.875000 0.125000
vt 0.875000 0.125000
vt 0.875000 0.125000
vt 0.875000 0.125000
vt 0.125000 0.125000
vt 0.125000 0.125000
vt 0.125000 0.125000
vt 0.125000 0.125000
vt 0.125000 0.125000
vt 0.125000 0.125000
vt 0.125000 0.125000
vt 0.125000 0.125000
vt 0.125000 0.125000
vt 0.125000 0.125000
vt 0.125000 0.125000
vt 0.125000 0.125000
vt 0.125000 0.125000
vt 0.125000 0.125000
vt 0.125000 0.125000
vt 0.125000 0.125000
vt 0.125000 0.125000
vt 0.125000 0.125000
vt 0.375000 0.125000
vt 0.375000 0.125000
vt 0.375000 0.125000
vt 0.375000 0.125000
vt 0.375000 0.125000
vt 0.375000 0.125000
vt 0.375000 0.125000
vt 0.375000 0.125000
vt 0.375000 0.125000
vt 0.375000 0.125000
vt 0.375000 0.125000
vt 0.375000 0.125000
vt 0.375000 0.125000
vt 0.375000 0.125000
vt 0.375000 0.125000
vt 0.375000 0.125000
vt 0.125000 0.125000
vt 0.125000 0.125000
vt 0.125000 0.125000
vt 0.125000 0.125000
vt 0.125000 0.125000
vt 0.125000 0.125000
vt 0.125000 0.125000
vt 0.125000 0.125000
vt 0.125000 0.125000
vt 0.125000 0.125000
vt 0.125000 0.125000
vt 0.125000 0.125000
vt 0.125000 0.125000
vt 0.125000 0.125000
vt 0.125000 0.125000
vt 0.125000 0.125000
vt 0.125000 0.125000
vt 0.125000 0.125000
vt 0.125000 0.125000
vt 0.125000 0.125000
vt 0.125000 0.125000
vt 0.125000 0.125000
vt 0.125000 0.125000
vt 0.125000 0.125000
vt 0.125000 0.125000
vt 0.125000 0.125000
vt 0.125000 0.125000
vt 0.125000 0.125000
vt 0.125000 0.125000
vt 0.125000 0.125000
vt 0.125000 0.375000
vt 0.125000 0.375000
vt 0.125000 0.375000
vt 0.125000 0.375000
vt 0.125000 0.375000
vt 0.125000 0.375000
vt 0.125000 0.375000
vt 0.125000 0.375000
vt 0.125000 0.375000
vt 0.125000 0.375000
vt 0.125000 0.375000
vt 0.125000 0.375000
vt 0.125000 0.125000
vt 0.125000 0.125000
vt 0.125000 0.125000
vt 0.125000 0.125000
vt 0.125000 0.125000
vt 0.125000 0.125000
vt 0.125000 0.125000
vt 0.125000 0.125000
vt 0.125000 0.125000
vt 0.125000 0.375000
vt 0.125000 0.375000
vt 0.125000 0.375000
vt 0.125000 0.375000
vt 0.125000 0.375000
vt 0.125000 0.375000
vt 0.125000 0.375000
vt 0.125000 0.375000
vt 0.125000 0.375000
vt 0.125000 0.375000
vt 0.125000 0.375000
vt 0.125000 0.375000
vt 0.125000 0.375000
vt 0.125000 0.375000
vt 0.125000 0.375000
vt 0.125000 0.375000
vt 0.125000 0.375000
vt 0.125000 0.375000
vt 0.125000 0.375000
vt 0.125000 0.375000
vn -0.7071 -0.7071 0.0000
vn -1.0000 -0.0000 0.0000
vn -0.7071 0.7071 0.0000
vn -0.0000 1.0000 0.0000
vn 0.7071 0.7071 0.0000
vn 1.0000 0.0000 0.0000
vn 0.7071 -0.7071 0.0000
vn 0.0000 -1.0000 0.0000
vn 0.0000 0.0000 -1.0000
vn 0.0000 0.7071 0.7071
vn -0.0000 0.7071 -0.7071
vn 0.0000 0.0000 1.0000
vn 0.0000 0.1951 -0.9808
vn 0.0000 0.1951 0.9808
vn 0.0000 -0.7071 0.7071
vn 0.0000 -0.7071 -0.7071
vn 0.5000 0.0000 -0.8660
vn 0.5000 0.0000 0.8660
vn -0.5000 0.0000 0.8660
vn -0.5000 0.0000 -0.8660
vn 0.7001 0.7141 0.0000
vn 0.3500 0.7141 0.6063
vn -0.3500 0.7141 0.6063
vn -0.7001 0.7141 -0.0000
vn -0.3500 0.7141 -0.6063
vn 0.3500 0.7141 -0.6063
vn 0.9138 0.4061 0.0000
vn 0.3919 0.4600 -0.7968
vn 0.4413 0.7771 -0.4487
vn -0.3919 0.4600 -0.7968
vn -0.4413 0.7771 -0.4487
vn -0.9138 0.4061 -0.0000
vn 0.3919 0.4600 0.7968
vn 0.4413 0.7771 0.4487
vn -0.3919 0.4600 0.7968
vn -0.4413 0.7771 0.4487
vn -0.3553 0.7035 -0.6154
vn -0.7107 0.7035 -0.0000
vn -0.3553 0.7035 0.6154
vn 0.3553 0.7035 -0.6154
vn 0.3553 0.7035 0.6154
vn 0.7107 0.7035 0.0000
vn -0.3827 0.0000 0.9239
vn -0.7071 0.0000 0.7071
vn -0.1789 -0.9839 0.0000
vn 0.1789 0.9839 0.0000
vn 0.8660 0.5000 -0.0000
vn 0.8660 -0.5000 -0.0000
vn -0.8660 -0.5000 0.0000
vn -0.8660 0.5000 0.0000
s 1
f 6/1/1 29/2/1 28/3/2 5/4/2
f 4/5/3 27/6/3 26/7/4 3/8/4
f 2/9/5 24/10/5 25/11/6 1/12/6
f 1/12/6 25/11/6 31/13/7 8/14/7
f 7/15/8 30/16/8 29/2/1 6/1/1
f 5/4/2 28/3/2 27/6/3 4/5/3
f 3/8/4 26/7/4 24/10/5 2/9/5
f 8/14/7 31/13/7 30/16/8 7/15/8
f 38/17/9 45/18/9 52/19/9 59/20/9
f 38/17/4 59/20/4 58/21/4 37/22/4
f 22/23/4 18/24/4 17/25/10 23/26/10
f 64/27/9 20/28/9 19/29/11 21/30/11
f 23/26/10 17/25/10 60/31/12 68/32/12
f 21/30/11 19/29/11 18/24/4 22/23/4
f 15/33/12 16/34/12 14/35/12
f 10/36/12 9/37/12 25/11/12 24/10/12
f 11/38/12 10/36/12 24/10/12 26/7/12
f 12/39/12 11/38/12 26/7/12 27/6/12
f 13/40/12 12/39/12 27/6/12 28/3/12
f 14/41/12 13/40/12 28/3/12 29/2/12
f 15/42/12 14/41/12 29/2/12 30/16/12
f 16/43/12 15/42/12 30/16/12 31/13/12
f 9/37/12 16/43/12 31/13/12 25/11/12
f 14/35/12 16/34/12 9/44/12 13/45/12
f 10/46/12 12/47/12 13/45/12 9/44/12
f 11/48/12 12/47/12 10/46/12
f 44/49/12 37/22/12 58/21/12 51/50/12
f 53/51/13 46/52/13 45/18/9 38/17/9
f 37/22/2 57/53/2 53/51/2 38/17/2
f 35/54/10 34/55/4 41/56/4 42/57/10
f 33/58/11 32/59/13 39/60/13 40/61/11
f 43/62/2 39/60/2 52/19/2 51/50/2
f 48/63/6 49/64/6 47/65/6
f 36/66/14 35/54/10 42/57/10 43/62/14
f 34/55/4 33/58/11 40/61/11 41/56/4
f 55/67/2 54/68/2 56/69/2
f 50/70/14 57/53/14 37/22/12 44/49/12
f 49/64/10 48/63/4 55/67/4 56/69/10
f 47/65/11 46/52/13 53/51/13 54/68/11
f 39/60/13 32/59/13 59/20/9 52/19/9
f 54/68/2 53/51/2 57/53/2 56/69/2
f 50/70/14 49/64/10 56/69/10 57/53/14
f 48/63/4 47/65/11 54/68/11 55/67/4
f 46/52/6 47/65/6 49/64/6 50/70/6
f 36/66/14 43/62/14 51/50/12 58/21/12
f 34/55/6 35/54/6 33/58/6
f 41/56/2 40/61/2 42/57/2
f 33/58/6 35/54/6 36/66/6 32/59/6
f 58/21/6 59/20/6 32/59/6 36/66/6
f 40/61/2 39/60/2 43/62/2 42/57/2
f 44/49/6 45/18/6 46/52/6 50/70/6
f 66/71/8 67/72/15 61/73/15 62/74/8
f 64/27/9 65/75/16 63/76/16 20/28/9
f 67/72/15 68/32/12 60/31/12 61/73/15
f 65/75/16 66/71/8 62/74/8 63/76/16
f 44/49/8 51/50/8 52/19/8 45/18/8
f 70/77/17 76/78/17 75/79/6 69/80/6
f 69/80/6 75/79/6 80/81/18 74/82/18
f 73/83/19 79/84/19 78/85/2 72/86/2
f 71/87/20 77/88/20 76/78/17 70/77/17
f 74/82/18 80/81/18 79/84/19 73/83/19
f 72/86/2 78/85/2 77/88/20 71/87/20
f 75/79/21 81/89/21 86/90/22 80/81/22
f 79/84/23 85/91/23 84/92/24 78/85/24
f 77/88/25 83/93/25 82/94/26 76/78/26
f 80/81/22 86/90/22 85/91/23 79/84/23
f 78/85/24 84/92/24 83/93/25 77/88/25
f 76/78/26 82/94/26 81/89/21 75/79/21
f 83/95/20 89/96/20 88/97/17 82/98/17
f 86/99/18 92/100/18 91/101/19 85/102/19
f 84/103/2 90/104/2 89/96/20 83/95/20
f 82/98/17 88/97/17 87/105/6 81/106/6
f 81/106/6 87/105/6 92/100/18 86/99/18
f 85/102/19 91/101/19 90/104/2 84/103/2
f 87/105/27 88/97/28 93/107/29
f 89/96/30 94/108/31 93/107/29 88/97/28
f 90/104/32 94/108/31 89/96/30
f 92/100/33 87/105/27 95/109/34
f 91/101/35 92/100/33 95/109/34 96/110/36
f 90/104/32 91/101/35 96/110/36
f 93/107/29 95/109/34 87/105/27
f 94/108/31 96/110/36 95/109/34 93/107/29
f 90/104/32 96/110/36 94/108/31
f 99/111/20 105/112/20 104/113/17 98/114/17
f 102/115/18 108/116/18 107/117/19 101/118/19
f 100/119/2 106/120/2 105/112/20 99/111/20
f 98/114/17 104/113/17 103/121/6 97/122/6
f 97/122/6 103/121/6 108/116/18 102/115/18
f 101/118/19 107/117/19 106/120/2 100/119/2
f 113/123/20 119/124/20 118/125/17 112/126/17
f 116/127/18 122/128/18 121/129/19 115/130/19
f 114/131/2 120/132/2 119/124/20 113/123/20
f 112/126/17 118/125/17 117/133/6 111/134/6
f 111/134/6 117/133/6 122/128/18 116/127/18
f 115/130/19 121/129/19 120/132/2 114/131/2
f 119/124/37 120/132/38 123/135/38 124/136/37
f 120/132/38 121/129/39 110/137/39 123/135/38
f 118/125/40 119/124/37 124/136/37 125/138/40
f 122/128/41 117/133/42 126/139/42 109/140/41
f 117/133/42 118/125/40 125/138/40 126/139/42
f 121/129/39 122/128/41 109/140/41 110/137/39
f 124/141/20 123/142/2 129/143/2 130/144/20
f 123/142/2 110/145/19 128/146/19 129/143/2
f 110/145/19 109/147/18 127/148/18 128/146/19
f 109/147/18 126/149/6 132/150/6 127/148/18
f 125/151/17 124/141/20 130/144/20 131/152/17
f 126/149/6 125/151/17 131/152/17 132/150/6
f 127/148/4 132/150/4 129/143/4 128/146/4
f 131/152/4 130/144/4 129/143/4 132/150/4
f 107/117/4 108/116/4 103/121/4 106/120/4
f 104/113/4 105/112/4 106/120/4 103/121/4
f 3/8/9 2/9/9 5/4/9 4/5/9
f 2/9/9 1/12/9 6/1/9 5/4/9
f 7/15/9 6/1/9 1/12/9 8/14/9
f 134/153/43 137/154/43 138/155/44 135/156/44
f 133/157/12 136/158/12 137/154/43 134/153/43
f 138/155/2 140/159/2 135/156/2
f 139/160/4 138/155/4 137/154/4 136/158/4
f 140/159/4 138/155/4 139/160/4
f 141/161/8 133/157/8 134/153/8 135/156/8
f 133/157/6 141/161/6 139/160/6 136/158/6
f 142/162/45 143/163/45 145/164/45 144/165/45
f 143/163/9 149/166/9 147/167/9 145/164/9
f 146/168/46 147/167/46 149/166/46 148/169/46
f 144/165/12 146/168/12 148/169/12 142/162/12
f 152/170/47 158/171/47 157/172/48 151/173/48
f 155/174/49 161/175/49 160/176/50 154/177/50
f 153/178/4 159/179/4 158/171/47 152/170/47
f 151/173/48 157/172/48 156/180/8 150/181/8
f 150/181/8 156/180/8 161/175/49 155/174/49
f 154/177/50 160/176/50 159/179/4 153/178/4
