# Blender v3.0.0 OBJ File: 'satis.blend'
# www.blender.org
o diesel_engine
v -0.150000 0.000000 0.080000
v 0.120000 0.000000 0.080000
v -0.150000 0.000000 -0.080000
v 0.120000 0.000000 -0.080000
v 0.120000 0.070000 -0.060000
v 0.120000 0.112426 -0.042426
v 0.120000 0.130000 0.000000
v 0.120000 0.112426 0.042426
v 0.120000 0.070000 0.060000
v 0.120000 0.027574 0.042426
v 0.120000 0.010000 -0.000000
v 0.120000 0.027574 -0.042426
v 0.140000 0.070000 -0.038352
v 0.140000 0.097119 -0.027119
v 0.140000 0.108352 0.000000
v 0.140000 0.097119 0.027119
v 0.140000 0.070000 0.038352
v 0.140000 0.042881 0.027119
v 0.140000 0.031648 0.000000
v 0.140000 0.042881 -0.027119
v 0.120000 0.070000 -0.060000
v -0.150000 0.070000 -0.060000
v 0.120000 0.070000 0.060000
v -0.150000 0.070000 0.060000
v 0.140000 0.112426 -0.042426
v 0.140000 0.070000 -0.060000
v 0.140000 0.130000 0.000000
v 0.140000 0.112426 0.042426
v 0.140000 0.070000 0.060000
v 0.140000 0.027574 0.042426
v 0.140000 0.010000 -0.000000
v 0.140000 0.027574 -0.042426
v 0.120000 0.090000 -0.070000
v -0.150000 0.090000 -0.070000
v 0.120000 0.090000 0.070000
v -0.150000 0.090000 0.070000
v 0.120000 0.130000 -0.080000
v -0.150000 0.130000 -0.080000
v 0.120000 0.130000 0.080000
v -0.150000 0.130000 0.080000
v 0.120000 0.140000 -0.080000
v -0.150000 0.140000 -0.080000
v 0.120000 0.140000 0.080000
v -0.150000 0.140000 0.080000
v 0.120000 0.160000 -0.060000
v -0.150000 0.160000 -0.060000
v 0.120000 0.160000 0.060000
v -0.150000 0.160000 0.060000
v 0.120000 0.160000 -0.030000
v -0.150000 0.160000 -0.030000
v 0.120000 0.140000 -0.010000
v -0.150000 0.140000 -0.010000
v 0.120000 0.160000 0.030000
v -0.150000 0.160000 0.030000
v 0.120000 0.140000 0.010000
v -0.150000 0.140000 0.010000
v 0.120000 0.150000 0.050000
v 0.120000 0.140000 0.060000
v 0.120000 0.130000 0.060000
v 0.120000 0.120000 0.050000
v 0.120000 0.120000 0.040000
v 0.120000 0.130000 0.030000
v 0.120000 0.140000 0.030000
v 0.120000 0.150000 0.040000
v 0.120000 0.150000 -0.040000
v 0.120000 0.140000 -0.030000
v 0.120000 0.130000 -0.030000
v 0.120000 0.120000 -0.040000
v 0.120000 0.120000 -0.050000
v 0.120000 0.130000 -0.060000
v 0.120000 0.140000 -0.060000
v 0.120000 0.150000 -0.050000
v 0.140000 0.150000 0.050000
v 0.140000 0.140000 0.060000
v 0.140000 0.130000 0.060000
v 0.140000 0.120000 0.050000
v 0.140000 0.120000 0.040000
v 0.140000 0.130000 0.030000
v 0.140000 0.140000 0.030000
v 0.140000 0.150000 0.040000
v 0.140000 0.150000 -0.040000
v 0.140000 0.140000 -0.030000
v 0.140000 0.130000 -0.030000
v 0.140000 0.120000 -0.040000
v 0.140000 0.120000 -0.050000
v 0.140000 0.130000 -0.060000
v 0.140000 0.140000 -0.060000
v 0.140000 0.150000 -0.050000
v -0.120000 0.040000 0.080000
v -0.090000 0.040000 0.080000
v -0.090000 0.090000 0.080000
v -0.120000 0.090000 0.080000
v -0.090000 0.100000 0.070000
v -0.120000 0.100000 0.070000
v -0.120000 0.030000 0.070000
v -0.090000 0.030000 0.070000
v 0.090000 0.040000 0.080000
v 0.060000 0.040000 0.080000
v -0.090000 0.100000 -0.070000
v -0.120000 0.100000 -0.070000
v -0.090000 0.090000 -0.080000
v -0.120000 0.090000 -0.080000
v -0.090000 0.040000 -0.080000
v -0.120000 0.040000 -0.080000
v -0.090000 0.030000 -0.070000
v -0.120000 0.030000 -0.070000
v 0.090000 0.090000 0.080000
v 0.060000 0.090000 0.080000
v 0.090000 0.100000 0.070000
v 0.060000 0.100000 0.070000
v 0.060000 0.030000 0.070000
v 0.090000 0.030000 0.070000
v 0.090000 0.100000 -0.070000
v 0.060000 0.100000 -0.070000
v 0.090000 0.090000 -0.080000
v 0.060000 0.090000 -0.080000
v 0.090000 0.040000 -0.080000
v 0.060000 0.040000 -0.080000
v 0.090000 0.030000 -0.070000
v 0.060000 0.030000 -0.070000
v 0.030000 0.040000 0.080000
v 0.000000 0.040000 0.080000
v 0.030000 0.090000 0.080000
v 0.000000 0.090000 0.080000
v 0.030000 0.100000 0.070000
v 0.000000 0.100000 0.070000
v 0.000000 0.030000 0.070000
v 0.030000 0.030000 0.070000
v 0.030000 0.100000 -0.070000
v 0.000000 0.100000 -0.070000
v 0.030000 0.090000 -0.080000
v 0.000000 0.090000 -0.080000
v 0.030000 0.040000 -0.080000
v 0.000000 0.040000 -0.080000
v 0.030000 0.030000 -0.070000
v 0.000000 0.030000 -0.070000
v -0.030000 0.040000 0.080000
v -0.060000 0.040000 0.080000
v -0.030000 0.090000 0.080000
v -0.060000 0.090000 0.080000
v -0.030000 0.100000 0.070000
v -0.060000 0.100000 0.070000
v -0.060000 0.030000 0.070000
v -0.030000 0.030000 0.070000
v -0.030000 0.100000 -0.070000
v -0.060000 0.100000 -0.070000
v -0.030000 0.090000 -0.080000
v -0.060000 0.090000 -0.080000
v -0.030000 0.040000 -0.080000
v -0.060000 0.040000 -0.080000
v -0.030000 0.030000 -0.070000
v -0.060000 0.030000 -0.070000
v 0.015000 0.140000 0.010142
v 0.025142 0.140000 0.000000
v 0.015000 0.140000 -0.010142
v 0.004858 0.140000 0.000000
v 0.015000 0.150000 0.010142
v 0.025142 0.150000 0.000000
v 0.015000 0.150000 -0.010142
v 0.004858 0.150000 0.000000
v -0.045000 0.140000 0.010142
v -0.034858 0.140000 -0.000000
v -0.045000 0.140000 -0.010142
v -0.055142 0.140000 -0.000000
v -0.045000 0.150000 0.010142
v -0.034858 0.150000 -0.000000
v -0.045000 0.150000 -0.010142
v -0.055142 0.150000 -0.000000
v -0.105000 0.140000 0.010142
v -0.094858 0.140000 0.000000
v -0.105000 0.140000 -0.010142
v -0.115142 0.140000 0.000000
v -0.105000 0.150000 0.010142
v -0.094858 0.150000 0.000000
v -0.105000 0.150000 -0.010142
v -0.115142 0.150000 0.000000
v 0.075000 0.140000 0.010142
v 0.085142 0.140000 0.000000
v 0.075000 0.140000 -0.010142
v 0.064858 0.140000 0.000000
v 0.075000 0.150000 0.010142
v 0.085142 0.150000 0.000000
v 0.075000 0.150000 -0.010142
v 0.064858 0.150000 0.000000
vt 0.125000 0.125000
vt 0.125000 0.125000
vt 0.125000 0.125000
vt 0.125000 0.125000
vt 0.125000 0.125000
vt 0.125000 0.125000
vt 0.125000 0.125000
vt 0.125000 0.125000
vt 0.125000 0.125000
vt 0.125000 0.125000
vt 0.125000 0.125000
vt 0.125000 0.125000
vt 0.125000 0.125000
vt 0.125000 0.125000
vt 0.125000 0.125000
vt 0.125000 0.125000
vt 0.125000 0.125000
vt 0.125000 0.125000
vt 0.125000 0.125000
vt 0.125000 0.125000
vt 0.125000 0.125000
vt 0.125000 0.125000
vt 0.125000 0.125000
vt 0.125000 0.125000
vt 0.125000 0.125000
vt 0.125000 0.125000
vt 0.125000 0.125000
vt 0.125000 0.125000
vt 0.125000 0.125000
vt 0.125000 0.125000
vt 0.125000 0.125000
vt 0.125000 0.125000
vt 0.125000 0.125000
vt 0.125000 0.125000
vt 0.125000 0.125000
vt 0.125000 0.125000
vt 0.125000 0.125000
vt 0.125000 0.125000
vt 0.125000 0.125000
vt 0.125000 0.125000
vt 0.125000 0.125000
vt 0.125000 0.125000
vt 0.125000 0.125000
vt 0.125000 0.125000
vt 0.125000 0.125000
vt 0.125000 0.125000
vt 0.125000 0.125000
vt 0.125000 0.125000
vt 0.125000 0.125000
vt 0.125000 0.125000
vt 0.125000 0.125000
vt 0.125000 0.125000
vt 0.125000 0.125000
vt 0.125000 0.125000
vt 0.125000 0.125000
vt 0.125000 0.125000
vt 0.125000 0.125000
vt 0.125000 0.125000
vt 0.125000 0.125000
vt 0.125000 0.125000
vt 0.125000 0.125000
vt 0.125000 0.125000
vt 0.125000 0.125000
vt 0.125000 0.125000
vt 0.125000 0.125000
vt 0.125000 0.125000
vt 0.125000 0.125000
vt 0.125000 0.125000
vt 0.125000 0.375000
vt 0.125000 0.375000
vt 0.125000 0.375000
vt 0.125000 0.375000
vt 0.125000 0.375000
vt 0.125000 0.375000
vt 0.125000 0.375000
vt 0.125000 0.375000
vt 0.125000 0.375000
vt 0.125000 0.375000
vt 0.125000 0.375000
vt 0.125000 0.375000
vt 0.125000 0.375000
vt 0.125000 0.375000
vt 0.125000 0.375000
vt 0.125000 0.375000
vt 0.125000 0.125000
vt 0.125000 0.125000
vt 0.125000 0.125000
vt 0.125000 0.125000
vt 0.375000 0.125000
vt 0.375000 0.125000
vt 0.375000 0.125000
vt 0.375000 0.125000
vt 0.875000 0.125000
vt 0.875000 0.125000
vt 0.875000 0.125000
vt 0.125000 0.375000
vt 0.125000 0.375000
vt 0.125000 0.375000
vt 0.125000 0.375000
vt 0.125000 0.375000
vt 0.125000 0.375000
vt 0.125000 0.375000
vt 0.125000 0.375000
vt 0.875000 0.125000
vt 0.875000 0.125000
vt 0.875000 0.125000
vt 0.875000 0.125000
vt 0.875000 0.125000
vt 0.375000 0.125000
vt 0.375000 0.125000
vt 0.375000 0.125000
vt 0.375000 0.125000
vt 0.375000 0.125000
vt 0.375000 0.125000
vt 0.625000 0.125000
vt 0.625000 0.125000
vt 0.625000 0.125000
vt 0.625000 0.125000
vt 0.375000 0.125000
vt 0.375000 0.125000
vt 0.625000 0.125000
vt 0.625000 0.125000
vt 0.625000 0.125000
vt 0.625000 0.125000
vt 0.625000 0.125000
vt 0.625000 0.125000
vt 0.625000 0.125000
vt 0.625000 0.125000
vt 0.625000 0.125000
vt 0.625000 0.125000
vt 0.625000 0.125000
vt 0.625000 0.125000
vt 0.625000 0.125000
vt 0.625000 0.125000
vt 0.625000 0.125000
vt 0.625000 0.125000
vt 0.375000 0.125000
vt 0.375000 0.125000
vt 0.375000 0.125000
vt 0.375000 0.125000
vt 0.875000 0.125000
vt 0.875000 0.125000
vt 0.875000 0.125000
vt 0.875000 0.125000
vt 0.875000 0.125000
vt 0.875000 0.125000
vt 0.875000 0.125000
vt 0.875000 0.125000
vt 0.875000 0.125000
vt 0.875000 0.125000
vt 0.875000 0.125000
vt 0.875000 0.125000
vt 0.875000 0.125000
vt 0.875000 0.125000
vt 0.875000 0.125000
vt 0.875000 0.125000
vt 0.875000 0.125000
vt 0.875000 0.125000
vt 0.875000 0.125000
vt 0.875000 0.125000
vt 0.875000 0.125000
vt 0.875000 0.125000
vt 0.875000 0.125000
vt 0.875000 0.125000
vt 0.875000 0.125000
vt 0.875000 0.125000
vt 0.875000 0.125000
vt 0.875000 0.125000
vt 0.875000 0.125000
vt 0.875000 0.125000
vt 0.875000 0.125000
vt 0.875000 0.125000
vt 0.375000 0.375000
vt 0.375000 0.375000
vt 0.375000 0.375000
vt 0.375000 0.375000
vt 0.375000 0.375000
vt 0.375000 0.375000
vt 0.375000 0.375000
vt 0.375000 0.375000
vt 0.375000 0.375000
vt 0.375000 0.375000
vt 0.375000 0.375000
vt 0.375000 0.375000
vt 0.375000 0.375000
vt 0.375000 0.375000
vt 0.375000 0.375000
vt 0.375000 0.375000
vt 0.375000 0.375000
vt 0.375000 0.375000
vt 0.375000 0.375000
vt 0.375000 0.375000
vt 0.375000 0.375000
vt 0.375000 0.375000
vt 0.375000 0.375000
vt 0.375000 0.375000
vt 0.375000 0.375000
vt 0.375000 0.375000
vt 0.375000 0.375000
vt 0.375000 0.375000
vt 0.375000 0.375000
vt 0.375000 0.375000
vt 0.375000 0.375000
vt 0.375000 0.375000
vn 0.0000 0.7071 0.7071
vn 0.0000 -0.7071 0.7071
vn 0.0000 -1.0000 0.0000
vn 0.0000 1.0000 0.0000
vn 0.0000 0.0000 1.0000
vn 0.0000 0.7071 -0.7071
vn 0.0000 0.0000 -1.0000
vn 0.0000 -0.7071 -0.7071
vn 1.0000 0.0000 0.0000
vn -1.0000 0.0000 0.0000
vn -0.0000 0.2747 0.9615
vn -0.0000 0.2747 -0.9615
vn -0.0000 -0.4472 -0.8944
vn -0.0000 -0.3469 -0.9379
vn -0.0000 -0.4472 0.8944
vn -0.0000 -0.3469 0.9379
vn -0.0000 -0.2425 0.9701
vn -0.0000 -0.2425 -0.9701
vn -0.0000 0.9239 0.3827
vn 0.0000 0.9239 -0.3827
vn 0.0000 -0.3827 0.9239
vn 0.0000 -0.9239 0.3827
vn 0.0000 -0.9239 -0.3827
vn 0.0000 -0.3827 -0.9239
vn 0.0000 0.3827 -0.9239
vn 0.0000 0.3827 0.9239
vn -0.7071 0.0000 -0.7071
vn 0.7071 0.0000 0.7071
vn -0.7071 0.0000 0.7071
vn 0.7071 0.0000 -0.7071
s off
f 91/1/1 93/2/1 94/3/1 92/4/1
f 89/5/2 95/6/2 96/7/2 90/8/2
f 95/6/3 106/9/3 105/10/3 96/7/3
f 93/2/4 99/11/4 100/12/4 94/3/4
f 89/5/5 90/8/5 91/1/5 92/4/5
f 100/12/6 99/11/6 101/13/6 102/14/6
f 102/14/7 101/13/7 103/15/7 104/16/7
f 104/16/8 103/15/8 105/10/8 106/9/8
f 90/8/9 96/7/9 93/2/9 91/1/9
f 93/2/9 96/7/9 105/10/9 99/11/9
f 99/11/9 105/10/9 103/15/9 101/13/9
f 89/5/10 92/4/10 94/3/10 95/6/10
f 106/9/10 95/6/10 94/3/10 100/12/10
f 102/14/10 104/16/10 106/9/10 100/12/10
f 107/17/1 109/18/1 110/19/1 108/20/1
f 98/21/2 111/22/2 112/23/2 97/24/2
f 111/22/3 120/25/3 119/26/3 112/23/3
f 109/18/4 113/27/4 114/28/4 110/19/4
f 98/21/5 97/24/5 107/17/5 108/20/5
f 114/28/6 113/27/6 115/29/6 116/30/6
f 116/30/7 115/29/7 117/31/7 118/32/7
f 118/32/8 117/31/8 119/26/8 120/25/8
f 97/24/9 112/23/9 109/18/9 107/17/9
f 109/18/9 112/23/9 119/26/9 113/27/9
f 113/27/9 119/26/9 117/31/9 115/29/9
f 98/21/10 108/20/10 110/19/10 111/22/10
f 120/25/10 111/22/10 110/19/10 114/28/10
f 116/30/10 118/32/10 120/25/10 114/28/10
f 123/33/1 125/34/1 126/35/1 124/36/1
f 122/37/2 127/38/2 128/39/2 121/40/2
f 127/38/3 136/41/3 135/42/3 128/39/3
f 125/34/4 129/43/4 130/44/4 126/35/4
f 122/37/5 121/40/5 123/33/5 124/36/5
f 130/44/6 129/43/6 131/45/6 132/46/6
f 132/46/7 131/45/7 133/47/7 134/48/7
f 134/48/8 133/47/8 135/42/8 136/41/8
f 121/40/9 128/39/9 125/34/9 123/33/9
f 125/34/9 128/39/9 135/42/9 129/43/9
f 129/43/9 135/42/9 133/47/9 131/45/9
f 122/37/10 124/36/10 126/35/10 127/38/10
f 136/41/10 127/38/10 126/35/10 130/44/10
f 132/46/10 134/48/10 136/41/10 130/44/10
f 139/49/1 141/50/1 142/51/1 140/52/1
f 138/53/2 143/54/2 144/55/2 137/56/2
f 143/54/3 152/57/3 151/58/3 144/55/3
f 141/50/4 145/59/4 146/60/4 142/51/4
f 138/53/5 137/56/5 139/49/5 140/52/5
f 146/60/6 145/59/6 147/61/6 148/62/6
f 148/62/7 147/61/7 149/63/7 150/64/7
f 150/64/8 149/63/8 151/58/8 152/57/8
f 137/56/9 144/55/9 141/50/9 139/49/9
f 141/50/9 144/55/9 151/58/9 145/59/9
f 145/59/9 151/58/9 149/63/9 147/61/9
f 138/53/10 140/52/10 142/51/10 143/54/10
f 152/57/10 143/54/10 142/51/10 146/60/10
f 148/62/10 150/64/10 152/57/10 146/60/10
s 1
f 1/65/3 3/66/3 4/67/3 2/68/3
f 10/69/2 30/70/2 29/71/5 9/72/5
f 8/73/1 28/74/1 27/75/4 7/76/4
f 6/77/6 25/78/6 26/79/7 5/80/7
f 5/80/7 26/79/7 32/81/8 12/82/8
f 11/83/3 31/84/3 30/70/2 10/69/2
f 9/72/5 29/71/5 28/74/1 8/73/1
f 7/76/4 27/75/4 25/78/6 6/77/6
f 12/82/8 32/81/8 31/84/3 11/83/3
f 1/65/10 24/85/10 22/86/10 3/66/10
f 4/67/9 21/87/9 23/88/9 2/68/9
f 2/68/11 23/88/11 24/85/11 1/65/11
f 3/66/12 22/86/12 21/87/12 4/67/12
f 24/89/10 36/90/10 34/91/10 22/92/10
f 19/93/9 20/94/9 18/95/9
f 14/96/9 13/97/9 26/79/9 25/78/9
f 15/98/9 14/96/9 25/78/9 27/75/9
f 16/99/9 15/98/9 27/75/9 28/74/9
f 17/100/9 16/99/9 28/74/9 29/71/9
f 18/101/9 17/100/9 29/71/9 30/70/9
f 19/102/9 18/101/9 30/70/9 31/84/9
f 20/103/9 19/102/9 31/84/9 32/81/9
f 13/97/9 20/103/9 32/81/9 26/79/9
f 18/95/9 20/94/9 13/104/9 17/105/9
f 14/106/9 16/107/9 17/105/9 13/104/9
f 15/108/9 16/107/9 14/106/9
f 33/109/9 37/110/9 39/111/9 35/112/9
f 22/92/13 34/91/14 33/109/14 21/113/13
f 21/113/9 33/109/9 35/112/9 23/114/9
f 23/114/15 35/112/16 36/90/16 24/89/15
f 52/115/10 50/116/10 46/117/10 42/118/10
f 35/112/16 39/111/17 40/119/17 36/90/16
f 36/90/10 40/119/10 38/120/10 34/91/10
f 34/91/14 38/120/18 37/110/18 33/109/14
f 48/121/19 47/122/19 53/123/20 54/124/20
f 38/125/7 42/118/7 41/126/7 37/127/7
f 44/128/10 48/121/10 54/124/10 56/129/10
f 39/130/5 43/131/5 44/128/5 40/132/5
f 49/133/19 50/116/19 52/115/1 51/134/1
f 42/118/6 46/117/20 45/135/20 41/126/6
f 45/135/20 46/117/20 50/116/19 49/133/19
f 43/131/1 47/122/19 48/121/19 44/128/1
f 54/124/20 53/123/20 55/136/6 56/129/6
f 51/137/4 52/138/4 56/139/4 55/140/4
f 40/119/10 56/139/10 52/138/10 38/120/10
f 42/118/10 38/125/10 52/115/10
f 56/129/10 40/132/10 44/128/10
f 39/111/9 37/110/9 51/137/9 55/140/9
f 43/131/9 55/136/9 53/123/9 47/122/9
f 43/131/9 39/130/9 55/136/9
f 45/135/9 49/133/9 51/134/9 41/126/9
f 41/126/9 51/134/9 37/127/9
f 59/141/21 60/142/22 76/143/22 75/144/21
f 67/145/21 68/146/22 84/147/22 83/148/21
f 60/142/22 61/149/23 77/150/23 76/143/22
f 68/146/22 69/151/23 85/152/23 84/147/22
f 61/149/23 62/153/24 78/154/24 77/150/23
f 69/151/23 70/155/24 86/156/24 85/152/23
f 62/153/24 63/157/25 79/158/25 78/154/24
f 70/155/24 71/159/25 87/160/25 86/156/24
f 63/157/25 64/161/20 80/162/20 79/158/25
f 71/159/25 72/163/20 88/164/20 87/160/25
f 57/165/19 73/166/19 80/162/20 64/161/20
f 57/165/19 58/167/26 74/168/26 73/166/19
f 65/169/19 81/170/19 88/164/20 72/163/20
f 65/169/19 66/171/26 82/172/26 81/170/19
f 58/167/26 59/141/21 75/144/21 74/168/26
f 66/171/26 67/145/21 83/148/21 82/172/26
f 73/166/9 74/168/9 79/158/9 80/162/9
f 74/168/9 75/144/9 78/154/9 79/158/9
f 75/144/9 76/143/9 77/150/9 78/154/9
f 81/170/9 82/172/9 87/160/9 88/164/9
f 82/172/9 83/148/9 86/156/9 87/160/9
f 83/148/9 84/147/9 85/152/9 86/156/9
f 155/173/27 156/174/27 160/175/27 159/176/27
f 153/177/28 154/178/28 158/179/28 157/180/28
f 153/177/29 157/180/29 160/175/29 156/174/29
f 154/178/30 155/173/30 159/176/30 158/179/30
f 157/180/4 158/179/4 159/176/4 160/175/4
f 163/181/27 164/182/27 168/183/27 167/184/27
f 161/185/28 162/186/28 166/187/28 165/188/28
f 161/185/29 165/188/29 168/183/29 164/182/29
f 162/186/30 163/181/30 167/184/30 166/187/30
f 165/188/4 166/187/4 167/184/4 168/183/4
f 171/189/27 172/190/27 176/191/27 175/192/27
f 169/193/28 170/194/28 174/195/28 173/196/28
f 169/193/29 173/196/29 176/191/29 172/190/29
f 170/194/30 171/189/30 175/192/30 174/195/30
f 173/196/4 174/195/4 175/192/4 176/191/4
f 179/197/27 180/198/27 184/199/27 183/200/27
f 177/201/28 178/202/28 182/203/28 181/204/28
f 177/201/29 181/204/29 184/199/29 180/198/29
f 178/202/30 179/197/30 183/200/30 182/203/30
f 181/204/4 182/203/4 183/200/4 184/199/4
