# Blender v2.79 (sub 0) OBJ File: 'Base.blend'
# www.blender.org
o circuit_item_Cube.017
v 0.077148 0.020769 -0.076114
v 0.045114 0.115654 -0.050038
v 0.100692 0.020769 -0.035334
v 0.036624 0.115654 -0.035334
v 0.077148 0.020769 0.005446
v 0.045114 0.115654 -0.020629
v 0.030059 0.020769 0.005446
v 0.062093 0.115654 -0.020629
v 0.006515 0.020769 -0.035334
v 0.062093 0.115654 -0.050038
v 0.030059 0.020769 -0.076114
v 0.070583 0.115654 -0.035334
v 0.090895 0.103193 -0.035334
v 0.072249 0.103193 -0.067630
v 0.072249 0.103193 -0.003038
v 0.034957 0.103193 -0.003038
v 0.016311 0.103193 -0.035334
v 0.034957 0.103193 -0.067630
v -0.090783 0.020769 0.080428
v -0.090783 0.087705 0.080428
v -0.090783 0.020769 0.028621
v -0.090783 0.087705 0.028621
v -0.038975 0.020769 0.080428
v -0.038975 0.087705 0.080428
v -0.038975 0.020769 0.028621
v -0.038975 0.087705 0.028621
v -0.038975 0.020769 0.068183
v -0.038975 0.071675 0.068183
v -0.038975 0.020769 0.041719
v -0.038975 0.071675 0.041719
v 0.040371 0.071675 0.041719
v 0.040371 0.020769 0.041719
v 0.040371 0.020769 0.068183
v 0.040371 0.071675 0.068183
v 0.040371 0.071675 0.068182
v 0.040371 0.020769 0.068182
v 0.066835 0.020769 0.068182
v 0.066835 0.071675 0.068182
v 0.066835 0.071675 -0.010338
v 0.066835 0.020769 -0.010338
v 0.040371 0.071675 -0.010338
v 0.040371 0.020769 -0.010338
v 0.075214 0.087705 -0.072764
v 0.096824 0.087705 -0.035334
v 0.075214 0.087705 0.002097
v 0.031993 0.087705 0.002097
v 0.010382 0.087705 -0.035334
v 0.031993 0.087705 -0.072764
v -0.117601 0.000000 0.111273
v -0.135519 0.000000 0.096560
v -0.135519 0.048406 0.096560
v -0.117601 0.048406 0.111273
v -0.135519 0.000000 -0.096560
v -0.117601 0.000000 -0.111273
v -0.117601 0.048406 -0.111273
v -0.135519 0.048406 -0.096560
v 0.135519 0.000000 0.096560
v 0.117601 0.000000 0.111273
v 0.117601 0.048406 0.111273
v 0.135519 0.048406 0.096560
v 0.117601 0.000000 -0.111273
v 0.135519 0.000000 -0.096560
v 0.135519 0.048406 -0.096560
v 0.117601 0.048406 -0.111273
v 0.080097 0.020769 -0.081223
v 0.106591 0.020769 -0.035334
v 0.106591 0.087705 -0.035334
v 0.080097 0.020769 0.010555
v 0.080097 0.087705 0.010555
v 0.027109 0.020769 0.010555
v 0.027109 0.087705 0.010555
v 0.000616 0.020769 -0.035334
v 0.000616 0.087705 -0.035334
v 0.027109 0.020769 -0.081223
v 0.027109 0.087705 -0.081223
v 0.080097 0.087705 -0.081223
v 0.075214 0.087705 -0.072764
v 0.075214 0.087705 -0.072764
v -0.090783 0.020769 0.080428
v -0.090783 0.087705 0.080428
v -0.090783 0.087705 0.080428
v -0.090783 0.087705 0.028621
v -0.090783 0.087705 0.028621
v -0.090783 0.020769 0.028621
v -0.038975 0.087705 0.028621
v -0.038975 0.087705 0.028621
v -0.038975 0.020769 0.028621
v -0.038975 0.087705 0.080428
v -0.038975 0.087705 0.080428
v -0.038975 0.020769 0.080428
v -0.038975 0.071675 0.041719
v -0.038975 0.071675 0.041719
v -0.038975 0.020769 0.041719
v -0.038975 0.071675 0.068183
v -0.038975 0.071675 0.068183
v -0.038975 0.020769 0.068183
v 0.040371 0.071675 0.041719
v 0.040371 0.071675 0.041719
v 0.040371 0.020769 0.041719
v 0.040371 0.071675 0.068183
v 0.040371 0.071675 0.068183
v 0.040371 0.020769 0.068183
v 0.066835 0.071675 0.068182
v 0.066835 0.071675 0.068182
v 0.066835 0.071675 -0.010338
v 0.066835 0.071675 -0.010338
v 0.040371 0.071675 -0.010338
v 0.040371 0.071675 -0.010338
v 0.040371 0.071675 0.068182
v 0.040371 0.071675 0.068182
v 0.040371 0.020769 0.068182
v 0.066835 0.020769 0.068182
v 0.040371 0.020769 -0.010338
v 0.066835 0.020769 -0.010338
v 0.075214 0.087705 0.002097
v 0.075214 0.087705 0.002097
v 0.031993 0.087705 0.002097
v 0.031993 0.087705 0.002097
v 0.031993 0.087705 -0.072764
v 0.031993 0.087705 -0.072764
v 0.010382 0.087705 -0.035334
v 0.096824 0.087705 -0.035334
v -0.135519 0.000000 0.096560
v -0.117601 0.000000 0.111273
v -0.117601 0.048406 0.111273
v -0.135519 0.048406 0.096560
v -0.135519 0.048406 -0.096560
v -0.117601 0.048406 -0.111273
v -0.117601 0.000000 -0.111273
v -0.135519 0.000000 -0.096560
v 0.117601 0.048406 -0.111273
v 0.135519 0.048406 -0.096560
v 0.135519 0.000000 -0.096560
v 0.117601 0.000000 -0.111273
v 0.135519 0.048406 0.096560
v 0.117601 0.048406 0.111273
v 0.117601 0.000000 0.111273
v 0.135519 0.000000 0.096560
v 0.080097 0.020769 -0.081223
v 0.080097 0.020769 -0.081223
v 0.106591 0.020769 -0.035334
v 0.106591 0.020769 -0.035334
v 0.106591 0.087705 -0.035334
v 0.106591 0.087705 -0.035334
v 0.080097 0.020769 0.010555
v 0.080097 0.020769 0.010555
v 0.080097 0.087705 0.010555
v 0.080097 0.087705 0.010555
v 0.027109 0.020769 0.010555
v 0.027109 0.020769 0.010555
v 0.027109 0.087705 0.010555
v 0.027109 0.087705 0.010555
v 0.000616 0.020769 -0.035334
v 0.000616 0.020769 -0.035334
v 0.000616 0.087705 -0.035334
v 0.000616 0.087705 -0.035334
v 0.027109 0.020769 -0.081223
v 0.027109 0.020769 -0.081223
v 0.027109 0.087705 -0.081223
v 0.027109 0.087705 -0.081223
v 0.080097 0.087705 -0.081223
v 0.080097 0.087705 -0.081223
vt 0.125000 0.125000
vt 0.125000 0.125000
vt 0.125000 0.125000
vt 0.125000 0.125000
vt 0.125000 0.125000
vt 0.125000 0.125000
vt 0.125000 0.125000
vt 0.125000 0.125000
vt 0.375000 0.125000
vt 0.375000 0.125000
vt 0.375000 0.125000
vt 0.375000 0.125000
vt 0.375000 0.125000
vt 0.375000 0.125000
vt 0.375000 0.125000
vt 0.375000 0.125000
vt 0.125000 0.125000
vt 0.125000 0.125000
vt 0.125000 0.125000
vt 0.125000 0.125000
vt 0.125000 0.125000
vt 0.125000 0.125000
vt 0.125000 0.125000
vt 0.125000 0.125000
vt 0.375000 0.375000
vt 0.375000 0.375000
vt 0.375000 0.375000
vt 0.375000 0.375000
vt 0.375000 0.375000
vt 0.375000 0.375000
vt 0.375000 0.375000
vt 0.375000 0.375000
vt 0.375000 0.375000
vt 0.375000 0.375000
vt 0.375000 0.375000
vt 0.375000 0.375000
vt 0.375000 0.375000
vt 0.375000 0.375000
vt 0.375000 0.375000
vt 0.375000 0.375000
vt 0.375000 0.375000
vt 0.375000 0.375000
vt 0.375000 0.375000
vt 0.375000 0.375000
vt 0.375000 0.375000
vt 0.375000 0.375000
vt 0.625000 0.125000
vt 0.625000 0.125000
vt 0.625000 0.125000
vt 0.625000 0.125000
vt 0.625000 0.125000
vt 0.625000 0.125000
vt 0.625000 0.125000
vt 0.625000 0.125000
vt 0.625000 0.125000
vt 0.625000 0.125000
vt 0.625000 0.125000
vt 0.625000 0.125000
vt 0.625000 0.125000
vt 0.625000 0.125000
vt 0.625000 0.125000
vt 0.625000 0.125000
vt 0.625000 0.125000
vt 0.625000 0.125000
vt 0.625000 0.125000
vt 0.625000 0.125000
vt 0.875000 0.125000
vt 0.875000 0.125000
vt 0.875000 0.125000
vt 0.875000 0.125000
vt 0.875000 0.125000
vt 0.875000 0.125000
vt 0.875000 0.125000
vt 0.875000 0.125000
vt 0.875000 0.125000
vt 0.875000 0.125000
vt 0.875000 0.125000
vt 0.875000 0.125000
vt 0.875000 0.125000
vt 0.875000 0.125000
vt 0.875000 0.125000
vt 0.875000 0.125000
vt 0.875000 0.125000
vt 0.875000 0.125000
vt 0.875000 0.125000
vt 0.875000 0.125000
vt 0.875000 0.125000
vt 0.875000 0.125000
vt 0.875000 0.125000
vt 0.875000 0.125000
vt 0.875000 0.125000
vt 0.875000 0.125000
vt 0.875000 0.125000
vt 0.875000 0.125000
vt 0.875000 0.125000
vt 0.875000 0.125000
vt 0.875000 0.125000
vt 0.875000 0.125000
vt 0.875000 0.125000
vt 0.875000 0.125000
vt 0.875000 0.125000
vt 0.875000 0.125000
vt 0.875000 0.125000
vt 0.875000 0.125000
vt 0.875000 0.125000
vt 0.875000 0.125000
vt 0.625000 0.375000
vt 0.625000 0.375000
vt 0.625000 0.375000
vt 0.625000 0.375000
vt 0.625000 0.375000
vt 0.625000 0.375000
vt 0.125000 0.125000
vt 0.125000 0.125000
vt 0.125000 0.125000
vt 0.125000 0.125000
vt 0.125000 0.125000
vt 0.125000 0.125000
vt 0.125000 0.125000
vt 0.125000 0.125000
vt 0.125000 0.375000
vt 0.125000 0.375000
vt 0.125000 0.375000
vt 0.125000 0.375000
vt 0.125000 0.375000
vt 0.125000 0.375000
vt 0.125000 0.375000
vt 0.125000 0.375000
vt 0.125000 0.375000
vt 0.125000 0.375000
vt 0.125000 0.375000
vt 0.125000 0.375000
vt 0.125000 0.375000
vt 0.125000 0.375000
vt 0.125000 0.375000
vt 0.125000 0.375000
vt 0.125000 0.375000
vt 0.125000 0.375000
vt 0.125000 0.375000
vt 0.125000 0.375000
vt 0.125000 0.375000
vt 0.125000 0.375000
vt 0.125000 0.375000
vt 0.125000 0.375000
vt 0.625000 0.375000
vt 0.625000 0.375000
vt 0.625000 0.375000
vt 0.625000 0.375000
vt 0.625000 0.375000
vt 0.625000 0.375000
vt 0.000000 0.000000
vt 0.000000 0.000000
vt 0.000000 0.000000
vt 0.000000 0.000000
vt 0.000000 0.000000
vt 0.000000 0.000000
vt 0.000000 0.000000
vt 0.000000 0.000000
vt 0.000000 0.000000
vt 0.000000 0.000000
vt 0.000000 0.000000
vt 0.000000 0.000000
vn 0.3370 0.0000 0.9415
vn -0.3370 0.0000 0.9415
vn 0.9040 0.0000 -0.4274
vn 0.9040 0.0000 0.4274
vn 0.0000 1.0000 0.0000
vn -0.9040 0.0000 0.4274
vn -0.9040 0.0000 -0.4274
vn -0.3370 0.0000 -0.9415
vn 0.3370 0.0000 -0.9415
vn 0.8220 0.3147 -0.4746
vn 0.4029 0.5922 -0.6978
vn 0.8058 0.5922 0.0000
vn 0.9339 0.3575 0.0000
vn 0.4029 0.5922 0.6978
vn 0.8220 0.3147 0.4746
vn 0.0000 0.3147 0.9492
vn -0.4029 0.5922 0.6978
vn -0.8220 0.3147 0.4746
vn -0.8058 0.5922 0.0000
vn -0.9339 0.3575 0.0000
vn -0.4029 0.5922 -0.6978
vn -0.1753 0.9365 -0.3037
vn 0.1753 0.9365 -0.3037
vn -0.8220 0.3147 -0.4746
vn 0.0000 0.3147 -0.9492
vn 0.1753 0.9365 0.3037
vn -0.1753 0.9365 0.3037
vn 0.3507 0.9365 0.0000
vn -0.3507 0.9365 0.0000
vn -1.0000 0.0000 0.0000
vn 0.0000 0.0000 -1.0000
vn 1.0000 0.0000 0.0000
vn 0.0000 0.0000 1.0000
vn 0.0000 -1.0000 0.0000
vn -0.8660 0.0000 -0.5000
vn -0.8660 0.0000 0.5000
vn 0.8660 0.0000 0.5000
vn 0.8660 0.0000 -0.5000
s 1
f 137/1/1 59/2/1 125/3/2 124/4/2
f 133/5/3 63/6/3 60/7/4 138/8/4
f 132/9/5 131/10/5 128/11/5 127/12/5 126/13/5 52/14/5 136/15/5 135/16/5
f 123/17/6 51/18/6 56/19/7 130/20/7
f 129/21/8 55/22/8 64/23/9 134/24/9
f 77/25/10 14/26/11 13/27/12 122/28/13
f 122/28/13 13/27/12 15/29/14 115/30/15
f 116/31/16 15/29/14 16/32/17 118/33/16
f 46/34/18 16/32/17 17/35/19 47/36/20
f 14/26/11 18/37/21 2/38/22 10/39/23
f 47/36/20 17/35/19 18/37/21 119/40/24
f 120/41/25 18/37/21 14/26/11 78/42/25
f 16/32/17 15/29/14 8/43/26 6/44/27
f 13/27/12 14/26/11 10/39/23 12/45/28
f 18/37/21 17/35/19 4/46/29 2/38/22
f 15/29/14 13/27/12 12/45/28 8/43/26
f 12/45/28 10/39/23 2/38/22 4/46/29 6/44/27 8/43/26
f 17/35/19 16/32/17 6/44/27 4/46/29
f 79/47/30 80/48/30 82/49/30 84/50/30
f 21/51/31 83/52/31 85/53/31 87/54/31
f 25/55/32 86/56/32 88/57/32 90/58/32
f 23/59/33 89/60/33 81/61/33 19/62/33
f 26/63/5 22/64/5 20/65/5 24/66/5
f 93/67/30 96/68/30 94/69/30 91/70/30
f 99/71/32 97/72/32 100/73/32 102/74/32
f 92/75/5 95/76/5 101/77/5 98/78/5
f 29/79/31 30/80/31 31/81/31 32/82/31
f 28/83/33 27/84/33 33/85/33 34/86/33
f 107/87/30 113/88/30 111/89/30 109/90/30
f 114/91/32 105/92/32 103/93/32 112/94/32
f 106/95/5 108/96/5 110/97/5 104/98/5
f 37/99/33 38/100/33 35/101/33 36/102/33
f 40/103/31 42/104/31 41/105/31 39/106/31
f 45/107/5 117/108/5 151/109/5 148/110/5
f 117/108/5 121/111/5 155/112/5 151/109/5
f 124/4/2 125/3/2 51/18/6 123/17/6
f 55/22/8 129/21/8 130/20/7 56/19/7
f 63/6/3 133/5/3 134/24/9 64/23/9
f 59/2/1 137/1/1 138/8/4 60/7/4
f 53/113/34 54/114/34 61/115/34 62/116/34 57/117/34 58/118/34 49/119/34 50/120/34
f 158/121/31 159/122/31 161/123/31 140/124/31
f 154/125/35 156/126/35 160/127/35 74/128/35
f 150/129/36 152/130/36 73/131/36 72/132/36
f 146/133/33 147/134/33 71/135/33 70/136/33
f 142/137/37 143/138/37 69/139/37 145/140/37
f 65/141/38 162/142/38 144/143/38 66/144/38
f 48/145/5 43/146/5 76/147/5 75/148/5
f 44/149/5 45/107/5 148/110/5 67/150/5
f 121/111/5 48/145/5 75/148/5 155/112/5
f 43/146/5 44/149/5 67/150/5 76/147/5
s off
f 7/151/34 5/152/34 68/153/34 149/154/34
f 3/155/34 1/156/34 139/157/34 141/158/34
f 9/159/34 7/151/34 149/154/34 153/160/34
f 11/161/34 9/159/34 153/160/34 157/162/34
f 5/152/34 3/155/34 141/158/34 68/153/34
f 1/156/34 11/161/34 157/162/34 139/157/34
